<?xml version="1.0" standalone="no"?>
<!DOCTYPE svg PUBLIC "-//W3C//DTD SVG 20010904//EN"
 "http://www.w3.org/TR/2001/REC-SVG-20010904/DTD/svg10.dtd">
<svg version="1.0" xmlns="http://www.w3.org/2000/svg"
 width="170.000000pt" height="181.000000pt" viewBox="0 0 170.000000 181.000000"
 preserveAspectRatio="xMidYMid meet">
<metadata>
Created by potrace 1.16, written by Peter Selinger 2001-2019
</metadata>
<g transform="translate(0.000000,181.000000) scale(0.100000,-0.100000)"
fill="#000000" stroke="none">
<path d="M342 1792 c-66 -24 -118 -65 -159 -126 -44 -64 -54 -109 -51 -218 l3
-93 320 0 320 0 0 110 c0 100 -2 115 -28 167 -31 63 -86 116 -156 150 -63 30
-178 35 -249 10z m57 -76 c-10 -21 -17 -24 -44 -19 -68 11 -100 -68 -43 -110
32 -24 74 -17 89 16 8 18 18 22 54 22 25 0 45 -3 45 -7 0 -16 45 -48 67 -48
13 0 32 9 43 20 44 44 7 117 -55 107 -27 -5 -34 -2 -44 19 -16 35 12 32 79 -9
56 -33 112 -107 122 -162 l5 -25 -263 0 -263 0 14 47 c19 63 62 112 125 146
67 35 83 36 69 3z m321 -281 l0 -25 -265 0 -265 0 0 25 0 25 265 0 265 0 0
-25z"/>
<path d="M1164 1641 c-59 -15 -138 -66 -176 -114 -51 -65 -70 -133 -66 -243
l3 -89 320 0 320 0 3 96 c2 79 -1 107 -19 155 -26 70 -92 139 -164 173 -54 26
-164 37 -221 22z m36 -66 c0 -3 -5 -14 -12 -24 -9 -14 -19 -18 -43 -14 -36 6
-61 -13 -71 -53 -8 -31 29 -74 63 -74 22 0 63 31 63 48 0 4 20 7 45 7 25 0 45
-3 45 -7 0 -16 45 -48 67 -48 13 0 32 9 43 20 44 44 7 117 -55 107 -28 -5 -34
-2 -44 20 -11 24 -11 25 16 18 80 -19 159 -96 181 -178 l10 -37 -259 0 c-254
0 -259 0 -259 20 0 30 35 93 72 130 41 42 138 87 138 65z m310 -300 l0 -25
-265 0 -265 0 0 25 0 25 265 0 265 0 0 -25z"/>
<path d="M405 1331 c-267 -6 -282 -9 -305 -59 -14 -32 -25 -122 -50 -422 -11
-135 -27 -314 -35 -397 -17 -170 -12 -200 39 -240 37 -30 119 -34 451 -25
l280 7 0 25 0 25 -340 5 c-187 3 -346 9 -353 13 -26 17 -33 58 -22 136 5 42
26 247 45 455 28 305 38 383 51 398 16 17 38 18 295 18 275 0 278 0 290 -22 6
-12 16 -76 21 -142 5 -67 13 -131 18 -143 9 -23 44 -31 54 -15 11 18 -22 313
-38 337 -34 51 -56 54 -401 46z"/>
<path d="M295 1178 c-9 -23 -75 -830 -69 -839 10 -18 45 -9 53 13 11 31 75
804 67 823 -7 18 -45 20 -51 3z"/>
<path d="M577 1183 c-5 -9 70 -820 77 -840 3 -7 17 -13 31 -13 19 0 25 5 25
23 0 67 -74 814 -83 825 -10 13 -43 16 -50 5z"/>
<path d="M939 1148 c-56 -34 -56 -34 -104 -552 -49 -537 -49 -533 11 -573 26
-16 59 -18 393 -21 201 -2 376 0 388 3 35 8 62 44 68 89 3 23 -14 256 -39 519
-46 495 -49 512 -95 536 -10 6 -141 11 -306 13 -257 3 -291 1 -316 -14z m602
-69 c6 -12 19 -118 29 -238 27 -312 59 -642 66 -673 8 -41 -13 -95 -39 -102
-12 -3 -171 -6 -353 -6 -320 0 -332 1 -358 21 -20 16 -26 29 -26 59 0 80 80
912 90 930 5 10 15 21 22 23 7 3 135 6 285 6 267 1 273 1 284 -20z"/>
<path d="M1086 988 c-6 -29 -66 -752 -66 -795 0 -29 3 -33 25 -33 14 0 28 6
30 13 8 20 74 821 69 829 -3 5 -16 8 -29 8 -17 0 -26 -7 -29 -22z"/>
<path d="M1370 998 c-2 -52 76 -826 83 -835 11 -14 43 -17 51 -5 6 10 -71 829
-79 842 -9 14 -55 12 -55 -2z"/>
</g>
</svg>
